<?xml version="1.0" encoding="utf-8"?>
<!-- Generator: Adobe Illustrator 19.0.0, SVG Export Plug-In . SVG Version: 6.00 Build 0)  -->
<svg version="1.1" id="Layer_1" xmlns="http://www.w3.org/2000/svg" xmlns:xlink="http://www.w3.org/1999/xlink" x="0px" y="0px"
	 viewBox="-254 225.2 450.2 110.8" style="enable-background:new -254 225.2 450.2 110.8;" xml:space="preserve">
<style type="text/css">
	.st0{fill:#FFFFFF;}
	.st1{fill:#135092;}
	.st2{fill:#3386DF;}
	.st3{fill:#FFFFFF;stroke:#E6E6E6;stroke-width:0.5;stroke-miterlimit:10;}
	.st4{fill:#85B6EC;}
	.st5{fill:#FFFFFF;stroke:#E6E6E6;stroke-miterlimit:10;}
	.st6{fill:#CCCCCC;stroke:#CCCCCC;stroke-miterlimit:10;}
	.st7{fill:#D0DCE9;}
	.st8{fill:#EE3A43;}
</style>
<g id="XMLID_14_">
	<circle class="st0" cx="-193.1" cy="235.3" r="60.4"/>
</g>
<g id="XMLID_4_">
	<path id="XMLID_19_" class="st0" d="M-100.4,211.9c-0.4,0-0.6-0.3-0.6-0.6v-0.6c0-0.4,0.3-0.6,0.6-0.6h10.7c0.4,0,0.6,0.3,0.6,0.6
		v12.8c0,0.4-0.3,0.6-0.6,0.6h-0.5c-0.4,0-0.6-0.3-0.6-0.6v-2.7c0-0.2,0-0.6,0-0.8l0-0.1c0-0.1-0.2-0.2-0.3-0.1
		c-2.3,3-6.1,4.9-10.2,4.9c-7.9,0-14.3-6.4-14.3-14.2c0-7.8,6.4-14.2,14.3-14.2c4.5,0,8.4,2.1,11.1,5.3c0.2,0.2,0.1,0.7-0.1,0.8
		l-0.7,0.5c-0.3,0.2-0.7,0.2-0.9-0.1c-2.3-2.7-5.6-4.4-9.4-4.4c-6.7,0-12.2,5.5-12.2,12.2c0,6.7,5.5,12.2,12.2,12.2
		c4.2,0,7.9-2.1,10.1-5.5c0.1-0.2,0.2-0.6,0.2-0.9v-3.9c0-0.3-0.2-0.5-0.5-0.5H-100.4z"/>
	<path id="XMLID_21_" class="st0" d="M-73.7,197.3c0.2-0.3,0.5-0.6,0.9-0.6h1c0.4,0,0.7,0.2,0.9,0.6l12,26.3c0.1,0.2,0,0.6-0.4,0.6
		h-1c-0.4,0-0.7-0.2-0.9-0.6l-2.4-5.2c-0.1-0.3-0.4-0.5-0.7-0.5h-16.3c-0.3,0-0.6,0.2-0.7,0.5l-2.3,5.2c-0.1,0.3-0.5,0.6-0.9,0.6
		h-1.1c-0.3,0-0.5-0.3-0.4-0.6L-73.7,197.3z M-72.1,199.4c-0.1-0.2-0.3-0.2-0.4,0l-7.3,16.1c-0.1,0.2,0,0.5,0.3,0.5h14.4
		c0.2,0,0.4-0.2,0.3-0.5L-72.1,199.4z"/>
	<path id="XMLID_82_" class="st0" d="M-53.5,224.2c-0.4,0-0.6-0.3-0.6-0.6v-26.2c0-0.4,0.3-0.6,0.6-0.6H-36c0.4,0,0.6,0.3,0.6,0.6
		v0.8c0,0.4-0.3,0.6-0.6,0.6h-15.7c-0.3,0-0.5,0.2-0.5,0.5v10c0,0.3,0.2,0.5,0.5,0.5h13.2c0.4,0,0.6,0.3,0.6,0.6v0.7
		c0,0.4-0.3,0.6-0.6,0.6h-13.2c-0.3,0-0.5,0.2-0.5,0.5v9.5c0,0.3,0.2,0.5,0.5,0.5H-36c0.4,0,0.6,0.3,0.6,0.6v0.8
		c0,0.4-0.3,0.6-0.6,0.6H-53.5z"/>
	<path id="XMLID_85_" class="st0" d="M-28.6,224.2c-0.4,0-0.6-0.3-0.6-0.6v-26.2c0-0.4,0.3-0.6,0.6-0.6h0.8c0.4,0,0.6,0.3,0.6,0.6
		v24.3c0,0.3,0.2,0.5,0.5,0.5h14.7c0.4,0,0.6,0.3,0.6,0.6v0.8c0,0.4-0.3,0.6-0.6,0.6H-28.6z"/>
	<path id="XMLID_87_" class="st0" d="M5.6,224.2c-0.4,0-0.6-0.3-0.6-0.6v-26.2c0-0.4,0.3-0.6,0.6-0.6h16.9c0.4,0,0.6,0.3,0.6,0.6
		v0.8c0,0.4-0.3,0.6-0.6,0.6H7.6c-0.3,0-0.5,0.2-0.5,0.5v10.9c0,0.3,0.2,0.5,0.5,0.5h12.8c0.4,0,0.6,0.3,0.6,0.6v0.7
		c0,0.4-0.3,0.6-0.6,0.6H7.6c-0.3,0-0.5,0.2-0.5,0.5v10.4c0,0.4-0.3,0.6-0.6,0.6H5.6z"/>
	<path id="XMLID_89_" class="st0" d="M26.3,210.5c0-7.8,6.4-14.2,14.3-14.2c7.9,0,14.3,6.4,14.3,14.2c0,7.9-6.4,14.2-14.3,14.2
		C32.7,224.7,26.3,218.3,26.3,210.5z M28.4,210.5c0,6.7,5.5,12.2,12.2,12.2c6.7,0,12.2-5.5,12.2-12.2c0-6.7-5.5-12.2-12.2-12.2
		C33.9,198.3,28.4,203.8,28.4,210.5z"/>
	<path id="XMLID_92_" class="st0" d="M60.8,197.4c0-0.4,0.3-0.6,0.6-0.6h11.5c5.9,0,9.4,4.1,9.4,8.8c0,3.7-2.1,7-5.8,8.3
		c-0.2,0.1-0.3,0.4-0.2,0.6l6.6,9.2c0.1,0.2,0,0.5-0.3,0.5h-1.3c-0.4,0-0.8-0.2-1-0.5l-6.3-8.9c-0.2-0.2-0.4-0.3-0.6-0.3
		c-0.1,0-0.3,0-0.5,0h-9.5c-0.3,0-0.5,0.2-0.5,0.5v8.6c0,0.4-0.3,0.6-0.6,0.6h-0.8c-0.4,0-0.6-0.3-0.6-0.6V197.4z M72.9,198.7h-9.5
		c-0.3,0-0.5,0.2-0.5,0.5V212c0,0.3,0.2,0.5,0.5,0.5h9.5c4.8,0,7.4-3.2,7.4-6.9C80.3,202,77.7,198.7,72.9,198.7z"/>
	<path id="XMLID_95_" class="st0" d="M111,217.2c0.2-0.3,0.6-0.4,0.9-0.2l0.7,0.4c0.3,0.1,0.4,0.6,0.2,0.8
		c-2.5,3.9-6.9,6.4-11.9,6.4c-7.9,0-14.3-6.4-14.3-14.2c0-7.8,6.4-14.2,14.3-14.2c5,0,9.4,2.6,11.9,6.4c0.2,0.2,0.1,0.7-0.2,0.8
		l-0.7,0.4c-0.3,0.2-0.7,0.1-0.9-0.2c-2.2-3.2-5.9-5.3-10.1-5.3c-6.7,0-12.2,5.5-12.2,12.2c0,6.7,5.5,12.2,12.2,12.2
		C105.1,222.6,108.8,220.5,111,217.2z"/>
	<path id="XMLID_97_" class="st0" d="M119.4,224.2c-0.4,0-0.6-0.3-0.6-0.6v-26.2c0-0.4,0.3-0.6,0.6-0.6H137c0.4,0,0.6,0.3,0.6,0.6
		v0.8c0,0.4-0.3,0.6-0.6,0.6h-15.7c-0.3,0-0.5,0.2-0.5,0.5v10c0,0.3,0.2,0.5,0.5,0.5h13.2c0.4,0,0.6,0.3,0.6,0.6v0.7
		c0,0.4-0.3,0.6-0.6,0.6h-13.2c-0.3,0-0.5,0.2-0.5,0.5v9.5c0,0.3,0.2,0.5,0.5,0.5H137c0.4,0,0.6,0.3,0.6,0.6v0.8
		c0,0.4-0.3,0.6-0.6,0.6H119.4z"/>
	<path id="XMLID_99_" class="st0" d="M-115.1,234.1c0-0.2,0.2-0.4,0.4-0.4h7.4c3.8,0,6,2.6,6,5.7c0,2.4-1.3,4.5-3.7,5.4
		c-0.1,0-0.2,0.2-0.1,0.4l4.2,5.9c0.1,0.2,0,0.3-0.2,0.3h-0.8c-0.2,0-0.5-0.1-0.6-0.3l-4.1-5.7c-0.1-0.1-0.2-0.2-0.4-0.2
		c-0.1,0-0.2,0-0.3,0h-6.1c-0.2,0-0.3,0.1-0.3,0.3v5.5c0,0.2-0.2,0.4-0.4,0.4h-0.5c-0.2,0-0.4-0.2-0.4-0.4V234.1z M-107.4,234.9
		h-6.1c-0.2,0-0.3,0.1-0.3,0.3v8.2c0,0.2,0.1,0.3,0.3,0.3h6.1c3.1,0,4.7-2.1,4.7-4.4C-102.6,237-104.3,234.9-107.4,234.9z"/>
	<path id="XMLID_102_" class="st0" d="M-98.6,242.5c0-5,4.1-9.2,9.2-9.2c5.1,0,9.2,4.1,9.2,9.2c0,5.1-4.1,9.2-9.2,9.2
		C-94.4,251.7-98.6,247.6-98.6,242.5z M-97.2,242.5c0,4.3,3.5,7.8,7.8,7.8c4.3,0,7.8-3.5,7.8-7.8c0-4.3-3.5-7.8-7.8-7.8
		C-93.7,234.7-97.2,238.2-97.2,242.5z"/>
	<path id="XMLID_105_" class="st0" d="M-76,251.3c-0.2,0-0.4-0.2-0.4-0.4v-16.8c0-0.2,0.2-0.4,0.4-0.4h7.6c3.4,0,5.2,2.1,5.2,4.5
		c0,1.7-0.9,3.2-2.4,3.9c-0.1,0.1-0.1,0.2,0,0.2c1.9,0.7,3.1,2.3,3.1,4.2c0,2.5-2,4.7-5.1,4.7H-76z M-68.5,234.9h-6.2
		c-0.2,0-0.3,0.1-0.3,0.3v6.2c0,0.2,0.1,0.3,0.3,0.3h6.6c2.1,0,3.5-1.7,3.5-3.5C-64.6,236.6-65.9,234.9-68.5,234.9z M-67.8,242.9h-7
		c-0.2,0-0.3,0.1-0.3,0.3v6.5c0,0.2,0.1,0.3,0.3,0.3h7c2.4,0,3.9-1.7,3.9-3.6C-63.9,244.6-65.3,242.9-67.8,242.9z"/>
	<path id="XMLID_109_" class="st0" d="M-59.8,242.5c0-5,4.1-9.2,9.2-9.2c5.1,0,9.2,4.1,9.2,9.2c0,5.1-4.1,9.2-9.2,9.2
		C-55.7,251.7-59.8,247.6-59.8,242.5z M-58.5,242.5c0,4.3,3.5,7.8,7.8,7.8c4.3,0,7.8-3.5,7.8-7.8c0-4.3-3.5-7.8-7.8-7.8
		C-54.9,234.7-58.5,238.2-58.5,242.5z"/>
	<path id="XMLID_112_" class="st0" d="M-40.6,235c-0.2,0-0.4-0.2-0.4-0.4v-0.5c0-0.2,0.2-0.4,0.4-0.4h13.2c0.2,0,0.4,0.2,0.4,0.4
		v0.5c0,0.2-0.2,0.4-0.4,0.4H-33c-0.2,0-0.3,0.1-0.3,0.3v15.6c0,0.2-0.2,0.4-0.4,0.4h-0.5c-0.2,0-0.4-0.2-0.4-0.4v-15.6
		c0-0.2-0.1-0.3-0.3-0.3H-40.6z"/>
	<path id="XMLID_114_" class="st0" d="M-23.8,234.1c0-0.2,0.2-0.4,0.4-0.4h0.5c0.2,0,0.4,0.2,0.4,0.4v16.8c0,0.2-0.2,0.4-0.4,0.4
		h-0.5c-0.2,0-0.4-0.2-0.4-0.4V234.1z"/>
	<path id="XMLID_116_" class="st0" d="M-3,246.9c0.1-0.2,0.4-0.2,0.6-0.1l0.5,0.3c0.2,0.1,0.2,0.4,0.1,0.5c-1.6,2.5-4.5,4.1-7.7,4.1
		c-5.1,0-9.2-4.1-9.2-9.2c0-5,4.1-9.2,9.2-9.2c3.2,0,6,1.7,7.6,4.1c0.1,0.2,0.1,0.4-0.1,0.5l-0.5,0.2c-0.2,0.1-0.5,0.1-0.6-0.1
		c-1.4-2.1-3.8-3.4-6.5-3.4c-4.3,0-7.8,3.5-7.8,7.8c0,4.3,3.5,7.8,7.8,7.8C-6.7,250.3-4.4,249-3,246.9z"/>
	<path id="XMLID_118_" class="st0" d="M0.9,247.4c0-0.2,0.2-0.5,0.5-0.5h0.4c0.3,0,0.5,0.2,0.5,0.5c0.3,1.8,2.3,3.1,5.5,3.1
		c3.3,0,5-1.4,5-3.3c0-2.3-2.5-3.1-5.5-4c-2.9-0.9-6.3-2-6.3-5.2c0-2.8,2.4-4.6,6.3-4.6c3.7,0,6.4,1.7,6.6,4.3
		c0,0.2-0.2,0.5-0.4,0.5H13c-0.2,0-0.4-0.2-0.5-0.5c-0.2-1.8-2.2-3.1-5.3-3.1c-3.1,0-4.9,1.4-4.9,3.3c0,2.3,2.4,3.1,5.3,4
		c2.8,0.9,6.5,1.9,6.5,5.2c0,2.8-2.6,4.6-6.5,4.6C3.9,251.7,1.1,249.9,0.9,247.4z"/>
</g>
<g id="XMLID_2_">
	<path id="XMLID_72_" class="st1" d="M-193.4,222.6c0,0-3.8,1.8-10,0.6c0,0-15.3-4.2-24.2,16.6c0,0,10.5-3.4,14.7-1.5
		c0,0-5.3,4.3-6.8,9.7c0,0,7.2-3.2,15.3-2.1c0,0-5.4,4.3-6.1,7.4c0,0,8.4-3.6,21.3-1c0,0,8.6,0.3,14.7-3.1"/>
	<path id="XMLID_71_" class="st2" d="M-202.9,230.1c0,0,2.9,0.7,4.1,0.5c1.2-0.2,2.2-0.6,6.1-6.3l14.5-12.3l1.6,1l1.6,2.3
		c0,0,1.2-0.6,4.6,3.4c3.4,3.9,3.5,28.4,3.5,28.4s3.5,11.6,3.7,12c0.2,0.5-7.8,0.7-7.8,0.7s-3.2-3-2.9-6.8c0.2-3.7-3.9-8.6-3.9-8.6
		s-8.3,4.8-9.2,6.2c-0.9,1.4-0.2,1.3-0.2,1.3s-0.7,4.4-0.8,5.2c0,0.8-7.9-2-7.9-2s0.2-5.1,0.7-6.3c0.5-1.3,4-5.6,5.8-6.6
		s3-11.3,3-11.3s-3.8,5-5,5.5c-1.2,0.5-3.4,1.7-3.4,1.7l-7.2,1.6c0,0-3.6-0.9-3.7-1.2c0-0.3-1.5-3.4-1.6-5.4
		S-202.9,230.1-202.9,230.1z"/>
	<path id="XMLID_70_" class="st3" d="M-175.6,224.1c0,0,2.9-5.4,5.7-6.7c0,0,4.8,3.9,4.8,5.8C-165.1,225.1-175,224.7-175.6,224.1z"
		/>
	<path id="XMLID_69_" class="st0" d="M-188.4,225.1c0,0,1.8,3.6,3,3.6s4-0.4,3.7-7.3C-182,214.4-188.4,225.1-188.4,225.1z"/>
	<path id="XMLID_68_" class="st0" d="M-176.9,220.4c0,0,0.5-3.5,2.6-4.8c0,0,0.9,0.5,1.3,1.2C-173,216.8-176,219-176.9,220.4z"/>
	<path id="XMLID_67_" class="st4" d="M-191.7,225.7l-3.8-5.6c0,0,0.3-2.3,0-3.2c0,0-2.2-0.5-2.2-0.8c0,0-0.6-10.3,8.4-14.4
		c0,0,6.7-3.4,12,2l1-0.1l3.2,5.3l-0.5,1.2c0,0-2.2,3.1-4,4.1c0,0,0.7,1.5,0.7,1.7C-177,216-182.4,225.1-191.7,225.7z"/>
	<path id="XMLID_62_" d="M-191.6,218.9c0,0-0.8-2.7-0.8-3.6c0,0,5.7-2.2,8.1-4C-184.4,211.4-186.2,216.7-191.6,218.9z"/>
	<path id="XMLID_61_" class="st3" d="M-177.3,203.8c0,0,1.2,2.7-5.3,6.7c0,0,5.7-2.2,9-0.3c0,0,0.3-0.3,0.5-1.2l-3.2-5.3
		L-177.3,203.8z"/>
	<g id="XMLID_59_">
		<path d="M-193.4,221.1c0,0,0.3,0.1,0.5,0.3c0.3,0.2,0.6,0.5,0.8,0.9c0.2,0.4,0.4,0.8,0.4,1.1c0.1,0.3,0,0.6,0,0.6
			s-0.3-0.1-0.5-0.3c-0.3-0.2-0.6-0.5-0.8-0.9c-0.2-0.4-0.4-0.8-0.4-1.1C-193.5,221.4-193.4,221.1-193.4,221.1z"/>
	</g>
	<g id="XMLID_58_">
		<path d="M-192.2,221.1c0,0,0.3,0.1,0.5,0.3c0.3,0.2,0.6,0.5,0.8,0.9c0.2,0.4,0.4,0.8,0.4,1.1c0.1,0.3,0,0.6,0,0.6
			s-0.3-0.1-0.5-0.3c-0.3-0.2-0.6-0.5-0.8-0.9c-0.2-0.4-0.4-0.8-0.4-1.1C-192.2,221.4-192.2,221.1-192.2,221.1z"/>
	</g>
	<g id="XMLID_56_">
		<path d="M-191.1,220.5c0,0,0.3,0.1,0.5,0.3c0.3,0.2,0.6,0.5,0.8,0.9c0.2,0.4,0.4,0.8,0.4,1.1c0.1,0.3,0,0.6,0,0.6
			s-0.3-0.1-0.5-0.3c-0.3-0.2-0.6-0.5-0.8-0.9c-0.2-0.4-0.4-0.8-0.4-1.1C-191.1,220.8-191.1,220.5-191.1,220.5z"/>
	</g>
	<path id="XMLID_55_" class="st5" d="M-202.5,239v1.7c0,0,2,0,1.4,2.5l1.5,1c0,0,1.8-1.8,4.1-0.4l2.1-1.8c0,0-0.9-2.4,0.7-3.3
		l-0.6-1.9c0,0-2.4,0.4-2.9-0.9l-1.9-0.6"/>
	<polyline id="XMLID_54_" class="st6" points="-207.9,232.2 -234.2,204.4 -235,197.1 -228.9,198.8 -204.5,228.4 	"/>
	<path id="XMLID_53_" class="st6" d="M-211.3,234.7c0,0,6.6-5.4,9.2-9.9c0,0,1.4,0.6,1.4,0.9s-1.9,7-10,10.5
		C-210.7,236.3-210.9,236.8-211.3,234.7z"/>
	<polyline id="XMLID_52_" class="st0" points="-187.7,235.4 -192.2,242.7 -182.5,247.1 -179.3,244.2 	"/>
	<path id="XMLID_51_" class="st5" d="M-197,249.2l2.2-4.2c0,0,8,1.4,11.5,4.5l-2.9,3.7c0,0-2.8-2.1-4-2.1c-1.2,0-3.4,1-5.3-1.3
		C-195.5,249.9-196.4,249.3-197,249.2z"/>
	<path id="XMLID_50_" class="st5" d="M-176.5,252v3.8c0,0,5.7-0.5,6.8-0.3c1,0.2,3.1,1.6,6.6-1.8l-2.5-6.1"/>
	<path id="XMLID_26_" class="st4" d="M-187.3,256.3c0,0-6.7-3.3-10.2-3l-1.3,8.6l-0.1,2.7c0,0-5.1,0.7-6.1,3.4v2.9
		c0,0,14.6,0.1,17.4-0.8c0,0,0.2-2.7-1.2-5C-188.7,265.1-187.4,257-187.3,256.3z"/>
	<path id="XMLID_25_" class="st1" d="M-198.8,261.8l3.4,0.2c0,0,2.9-5.1,8.2-1.2l-1.3,1.9l-4,2.8c0,0-1.4,1.3-1.6,1.6
		c0,0-1.8-1.4-1.8-2.3l-3.5-0.2L-198.8,261.8z"/>
	<circle id="XMLID_24_" class="st5" cx="-190.9" cy="263.4" r="2.6"/>
	<path id="XMLID_13_" class="st4" d="M-174.6,258.4c0,0,10.9,0.2,12.4-0.5l1.8,6.5c0,0,5.3,2.1,5.5,6.8c0,0-5.5,2.7-7.1,2.8
		c-1.6,0.1-3.6,0.1-6.6-2.3c-3-2.3-4.1-2.2-4.6-2.5c0,0-0.7-1.5,1.3-3.4l0.2-0.3L-174.6,258.4z"/>
	<path id="XMLID_11_" class="st1" d="M-173.3,264c0,0,3.2-3.8,6.7,0c0,0,4.6,0.8,6.2-2.1l0.6,2.5c0,0-1.7,2.8-6.8,2.3
		c0,0-0.5,2.6-2.7,2.9l0-1.8l-1.8-1.9L-173.3,264z"/>
	<circle id="XMLID_10_" class="st5" cx="-170" cy="265.9" r="2.2"/>
	<circle id="XMLID_9_" class="st7" cx="-197.7" cy="239.4" r="1.8"/>
	<path id="XMLID_8_" class="st8" d="M-190.2,229c0,0,13.1-7.3,29.2-5.6c0,0,0.8,19.4-3.8,25c0,0-1.3,1.5-6.2,3.7c0,0-4.7-0.1-7.2-1
		C-178.3,251.2-185.7,244.6-190.2,229z"/>
</g>
</svg>
