<?xml version="1.0" encoding="utf-8"?>
<!-- Generator: Adobe Illustrator 19.0.0, SVG Export Plug-In . SVG Version: 6.00 Build 0)  -->
<svg version="1.1" id="Layer_1" xmlns="http://www.w3.org/2000/svg" xmlns:xlink="http://www.w3.org/1999/xlink" x="0px" y="0px"
	 viewBox="-254 225.2 450.2 123.5" style="enable-background:new -254 225.2 450.2 123.5;" xml:space="preserve">
<style type="text/css">
	.st0{fill:#FFFFFF;}
	.st1{fill:#135092;}
	.st2{fill:#3386DF;}
	.st3{fill:#FFFFFF;stroke:#E6E6E6;stroke-width:0.5;stroke-miterlimit:10;}
	.st4{fill:#85B6EC;}
	.st5{fill:#FFFFFF;stroke:#E6E6E6;stroke-miterlimit:10;}
	.st6{fill:#CCCCCC;stroke:#CCCCCC;stroke-miterlimit:10;}
	.st7{fill:#D0DCE9;}
	.st8{fill:#EE3A43;}
</style>
<g id="XMLID_14_">
	<circle class="st0" cx="-192.1" cy="287.3" r="60.4"/>
</g>
<g id="XMLID_4_">
	<path id="XMLID_19_" class="st0" d="M-99.4,263.9c-0.4,0-0.6-0.3-0.6-0.6v-0.6c0-0.4,0.3-0.6,0.6-0.6h10.7c0.4,0,0.6,0.3,0.6,0.6
		v12.8c0,0.4-0.3,0.6-0.6,0.6h-0.5c-0.4,0-0.6-0.3-0.6-0.6v-2.7c0-0.2,0-0.6,0-0.8l0-0.1c0-0.1-0.2-0.2-0.3-0.1
		c-2.3,3-6.1,4.9-10.2,4.9c-7.9,0-14.3-6.4-14.3-14.2c0-7.8,6.4-14.2,14.3-14.2c4.5,0,8.4,2.1,11.1,5.3c0.2,0.2,0.1,0.7-0.1,0.8
		l-0.7,0.5c-0.3,0.2-0.7,0.2-0.9-0.1c-2.3-2.7-5.6-4.4-9.4-4.4c-6.7,0-12.2,5.5-12.2,12.2c0,6.7,5.5,12.2,12.2,12.2
		c4.2,0,7.9-2.1,10.1-5.5c0.1-0.2,0.2-0.6,0.2-0.9v-3.9c0-0.3-0.2-0.5-0.5-0.5H-99.4z"/>
	<path id="XMLID_21_" class="st0" d="M-72.7,249.3c0.2-0.3,0.5-0.6,0.9-0.6h1c0.4,0,0.7,0.2,0.9,0.6l12,26.3c0.1,0.2,0,0.6-0.4,0.6
		h-1c-0.4,0-0.7-0.2-0.9-0.6l-2.4-5.2c-0.1-0.3-0.4-0.5-0.7-0.5h-16.3c-0.3,0-0.6,0.2-0.7,0.5l-2.3,5.2c-0.1,0.3-0.5,0.6-0.9,0.6
		h-1.1c-0.3,0-0.5-0.3-0.4-0.6L-72.7,249.3z M-71.1,251.4c-0.1-0.2-0.3-0.2-0.4,0l-7.3,16.1c-0.1,0.2,0,0.5,0.3,0.5h14.4
		c0.2,0,0.4-0.2,0.3-0.5L-71.1,251.4z"/>
	<path id="XMLID_82_" class="st0" d="M-52.5,276.2c-0.4,0-0.6-0.3-0.6-0.6v-26.2c0-0.4,0.3-0.6,0.6-0.6H-35c0.4,0,0.6,0.3,0.6,0.6
		v0.8c0,0.4-0.3,0.6-0.6,0.6h-15.7c-0.3,0-0.5,0.2-0.5,0.5v10c0,0.3,0.2,0.5,0.5,0.5h13.2c0.4,0,0.6,0.3,0.6,0.6v0.7
		c0,0.4-0.3,0.6-0.6,0.6h-13.2c-0.3,0-0.5,0.2-0.5,0.5v9.5c0,0.3,0.2,0.5,0.5,0.5H-35c0.4,0,0.6,0.3,0.6,0.6v0.8
		c0,0.4-0.3,0.6-0.6,0.6H-52.5z"/>
	<path id="XMLID_85_" class="st0" d="M-27.6,276.2c-0.4,0-0.6-0.3-0.6-0.6v-26.2c0-0.4,0.3-0.6,0.6-0.6h0.8c0.4,0,0.6,0.3,0.6,0.6
		v24.3c0,0.3,0.2,0.5,0.5,0.5h14.7c0.4,0,0.6,0.3,0.6,0.6v0.8c0,0.4-0.3,0.6-0.6,0.6H-27.6z"/>
	<path id="XMLID_87_" class="st0" d="M6.6,276.2c-0.4,0-0.6-0.3-0.6-0.6v-26.2c0-0.4,0.3-0.6,0.6-0.6h16.9c0.4,0,0.6,0.3,0.6,0.6
		v0.8c0,0.4-0.3,0.6-0.6,0.6H8.6c-0.3,0-0.5,0.2-0.5,0.5v10.9c0,0.3,0.2,0.5,0.5,0.5h12.8c0.4,0,0.6,0.3,0.6,0.6v0.7
		c0,0.4-0.3,0.6-0.6,0.6H8.6c-0.3,0-0.5,0.2-0.5,0.5v10.4c0,0.4-0.3,0.6-0.6,0.6H6.6z"/>
	<path id="XMLID_89_" class="st0" d="M27.3,262.5c0-7.8,6.4-14.2,14.3-14.2c7.9,0,14.3,6.4,14.3,14.2c0,7.9-6.4,14.2-14.3,14.2
		C33.7,276.7,27.3,270.3,27.3,262.5z M29.4,262.5c0,6.7,5.5,12.2,12.2,12.2c6.7,0,12.2-5.5,12.2-12.2c0-6.7-5.5-12.2-12.2-12.2
		C34.9,250.3,29.4,255.8,29.4,262.5z"/>
	<path id="XMLID_92_" class="st0" d="M61.8,249.4c0-0.4,0.3-0.6,0.6-0.6h11.5c5.9,0,9.4,4.1,9.4,8.8c0,3.7-2.1,7-5.8,8.3
		c-0.2,0.1-0.3,0.4-0.2,0.6l6.6,9.2c0.1,0.2,0,0.5-0.3,0.5h-1.3c-0.4,0-0.8-0.2-1-0.5l-6.3-8.9c-0.2-0.2-0.4-0.3-0.6-0.3
		c-0.1,0-0.3,0-0.5,0h-9.5c-0.3,0-0.5,0.2-0.5,0.5v8.6c0,0.4-0.3,0.6-0.6,0.6h-0.8c-0.4,0-0.6-0.3-0.6-0.6V249.4z M73.9,250.7h-9.5
		c-0.3,0-0.5,0.2-0.5,0.5V264c0,0.3,0.2,0.5,0.5,0.5h9.5c4.8,0,7.4-3.2,7.4-6.9C81.3,254,78.7,250.7,73.9,250.7z"/>
	<path id="XMLID_95_" class="st0" d="M112,269.2c0.2-0.3,0.6-0.4,0.9-0.2l0.7,0.4c0.3,0.1,0.4,0.6,0.2,0.8
		c-2.5,3.9-6.9,6.4-11.9,6.4c-7.9,0-14.3-6.4-14.3-14.2c0-7.8,6.4-14.2,14.3-14.2c5,0,9.4,2.6,11.9,6.4c0.2,0.2,0.1,0.7-0.2,0.8
		l-0.7,0.4c-0.3,0.2-0.7,0.1-0.9-0.2c-2.2-3.2-5.9-5.3-10.1-5.3c-6.7,0-12.2,5.5-12.2,12.2c0,6.7,5.5,12.2,12.2,12.2
		C106.1,274.6,109.8,272.5,112,269.2z"/>
	<path id="XMLID_97_" class="st0" d="M120.4,276.2c-0.4,0-0.6-0.3-0.6-0.6v-26.2c0-0.4,0.3-0.6,0.6-0.6H138c0.4,0,0.6,0.3,0.6,0.6
		v0.8c0,0.4-0.3,0.6-0.6,0.6h-15.7c-0.3,0-0.5,0.2-0.5,0.5v10c0,0.3,0.2,0.5,0.5,0.5h13.2c0.4,0,0.6,0.3,0.6,0.6v0.7
		c0,0.4-0.3,0.6-0.6,0.6h-13.2c-0.3,0-0.5,0.2-0.5,0.5v9.5c0,0.3,0.2,0.5,0.5,0.5H138c0.4,0,0.6,0.3,0.6,0.6v0.8
		c0,0.4-0.3,0.6-0.6,0.6H120.4z"/>
	<path id="XMLID_99_" class="st0" d="M-114.1,286.1c0-0.2,0.2-0.4,0.4-0.4h7.4c3.8,0,6,2.6,6,5.7c0,2.4-1.3,4.5-3.7,5.4
		c-0.1,0-0.2,0.2-0.1,0.4l4.2,5.9c0.1,0.2,0,0.3-0.2,0.3h-0.8c-0.2,0-0.5-0.1-0.6-0.3l-4.1-5.7c-0.1-0.1-0.2-0.2-0.4-0.2
		c-0.1,0-0.2,0-0.3,0h-6.1c-0.2,0-0.3,0.1-0.3,0.3v5.5c0,0.2-0.2,0.4-0.4,0.4h-0.5c-0.2,0-0.4-0.2-0.4-0.4V286.1z M-106.4,286.9
		h-6.1c-0.2,0-0.3,0.1-0.3,0.3v8.2c0,0.2,0.1,0.3,0.3,0.3h6.1c3.1,0,4.7-2.1,4.7-4.4C-101.6,289-103.3,286.9-106.4,286.9z"/>
	<path id="XMLID_102_" class="st0" d="M-97.6,294.5c0-5,4.1-9.2,9.2-9.2c5.1,0,9.2,4.1,9.2,9.2c0,5.1-4.1,9.2-9.2,9.2
		C-93.4,303.7-97.6,299.6-97.6,294.5z M-96.2,294.5c0,4.3,3.5,7.8,7.8,7.8c4.3,0,7.8-3.5,7.8-7.8c0-4.3-3.5-7.8-7.8-7.8
		C-92.7,286.7-96.2,290.2-96.2,294.5z"/>
	<path id="XMLID_105_" class="st0" d="M-75,303.3c-0.2,0-0.4-0.2-0.4-0.4v-16.8c0-0.2,0.2-0.4,0.4-0.4h7.6c3.4,0,5.2,2.1,5.2,4.5
		c0,1.7-0.9,3.2-2.4,3.9c-0.1,0.1-0.1,0.2,0,0.2c1.9,0.7,3.1,2.3,3.1,4.2c0,2.5-2,4.7-5.1,4.7H-75z M-67.5,286.9h-6.2
		c-0.2,0-0.3,0.1-0.3,0.3v6.2c0,0.2,0.1,0.3,0.3,0.3h6.6c2.1,0,3.5-1.7,3.5-3.5C-63.6,288.6-64.9,286.9-67.5,286.9z M-66.8,294.9h-7
		c-0.2,0-0.3,0.1-0.3,0.3v6.5c0,0.2,0.1,0.3,0.3,0.3h7c2.4,0,3.9-1.7,3.9-3.6C-62.9,296.6-64.3,294.9-66.8,294.9z"/>
	<path id="XMLID_109_" class="st0" d="M-58.8,294.5c0-5,4.1-9.2,9.2-9.2c5.1,0,9.2,4.1,9.2,9.2c0,5.1-4.1,9.2-9.2,9.2
		C-54.7,303.7-58.8,299.6-58.8,294.5z M-57.5,294.5c0,4.3,3.5,7.8,7.8,7.8c4.3,0,7.8-3.5,7.8-7.8c0-4.3-3.5-7.8-7.8-7.8
		C-53.9,286.7-57.5,290.2-57.5,294.5z"/>
	<path id="XMLID_112_" class="st0" d="M-39.6,287c-0.2,0-0.4-0.2-0.4-0.4v-0.5c0-0.2,0.2-0.4,0.4-0.4h13.2c0.2,0,0.4,0.2,0.4,0.4
		v0.5c0,0.2-0.2,0.4-0.4,0.4H-32c-0.2,0-0.3,0.1-0.3,0.3v15.6c0,0.2-0.2,0.4-0.4,0.4h-0.5c-0.2,0-0.4-0.2-0.4-0.4v-15.6
		c0-0.2-0.1-0.3-0.3-0.3H-39.6z"/>
	<path id="XMLID_114_" class="st0" d="M-22.8,286.1c0-0.2,0.2-0.4,0.4-0.4h0.5c0.2,0,0.4,0.2,0.4,0.4v16.8c0,0.2-0.2,0.4-0.4,0.4
		h-0.5c-0.2,0-0.4-0.2-0.4-0.4V286.1z"/>
	<path id="XMLID_116_" class="st0" d="M-2,298.9c0.1-0.2,0.4-0.2,0.6-0.1l0.5,0.3c0.2,0.1,0.2,0.4,0.1,0.5c-1.6,2.5-4.5,4.1-7.7,4.1
		c-5.1,0-9.2-4.1-9.2-9.2c0-5,4.1-9.2,9.2-9.2c3.2,0,6,1.7,7.6,4.1c0.1,0.2,0.1,0.4-0.1,0.5l-0.5,0.2c-0.2,0.1-0.5,0.1-0.6-0.1
		c-1.4-2.1-3.8-3.4-6.5-3.4c-4.3,0-7.8,3.5-7.8,7.8c0,4.3,3.5,7.8,7.8,7.8C-5.7,302.3-3.4,301-2,298.9z"/>
	<path id="XMLID_118_" class="st0" d="M1.9,299.4c0-0.2,0.2-0.5,0.5-0.5h0.4c0.3,0,0.5,0.2,0.5,0.5c0.3,1.8,2.3,3.1,5.5,3.1
		c3.3,0,5-1.4,5-3.3c0-2.3-2.5-3.1-5.5-4c-2.9-0.9-6.3-2-6.3-5.2c0-2.8,2.4-4.6,6.3-4.6c3.7,0,6.4,1.7,6.6,4.3
		c0,0.2-0.2,0.5-0.4,0.5H14c-0.2,0-0.4-0.2-0.5-0.5c-0.2-1.8-2.2-3.1-5.3-3.1c-3.1,0-4.9,1.4-4.9,3.3c0,2.3,2.4,3.1,5.3,4
		c2.8,0.9,6.5,1.9,6.5,5.2c0,2.8-2.6,4.6-6.5,4.6C4.9,303.7,2.1,301.9,1.9,299.4z"/>
</g>
<g id="XMLID_2_">
	<path id="XMLID_72_" class="st1" d="M-192.4,274.6c0,0-3.8,1.8-10,0.6c0,0-15.3-4.2-24.2,16.6c0,0,10.5-3.4,14.7-1.5
		c0,0-5.3,4.3-6.8,9.7c0,0,7.2-3.2,15.3-2.1c0,0-5.4,4.3-6.1,7.4c0,0,8.4-3.6,21.3-1c0,0,8.6,0.3,14.7-3.1"/>
	<path id="XMLID_71_" class="st2" d="M-201.9,282.1c0,0,2.9,0.7,4.1,0.5c1.2-0.2,2.2-0.6,6.1-6.3l14.5-12.3l1.6,1l1.6,2.3
		c0,0,1.2-0.6,4.6,3.4c3.4,3.9,3.5,28.4,3.5,28.4s3.5,11.6,3.7,12c0.2,0.5-7.8,0.7-7.8,0.7s-3.2-3-2.9-6.8c0.2-3.7-3.9-8.6-3.9-8.6
		s-8.3,4.8-9.2,6.2c-0.9,1.4-0.2,1.3-0.2,1.3s-0.7,4.4-0.8,5.2c0,0.8-7.9-2-7.9-2s0.2-5.1,0.7-6.3s4-5.6,5.8-6.6s3-11.3,3-11.3
		s-3.8,5-5,5.5s-3.4,1.7-3.4,1.7l-7.2,1.6c0,0-3.6-0.9-3.7-1.2c0-0.3-1.5-3.4-1.6-5.4C-206.2,282.9-201.9,282.1-201.9,282.1z"/>
	<path id="XMLID_70_" class="st3" d="M-174.6,276.1c0,0,2.9-5.4,5.7-6.7c0,0,4.8,3.9,4.8,5.8C-164.1,277.1-174,276.7-174.6,276.1z"
		/>
	<path id="XMLID_69_" class="st0" d="M-187.4,277.1c0,0,1.8,3.6,3,3.6s4-0.4,3.7-7.3C-181,266.4-187.4,277.1-187.4,277.1z"/>
	<path id="XMLID_68_" class="st0" d="M-175.9,272.4c0,0,0.5-3.5,2.6-4.8c0,0,0.9,0.5,1.3,1.2C-172,268.8-175,271-175.9,272.4z"/>
	<path id="XMLID_67_" class="st4" d="M-190.7,277.7l-3.8-5.6c0,0,0.3-2.3,0-3.2c0,0-2.2-0.5-2.2-0.8c0,0-0.6-10.3,8.4-14.4
		c0,0,6.7-3.4,12,2l1-0.1l3.2,5.3l-0.5,1.2c0,0-2.2,3.1-4,4.1c0,0,0.7,1.5,0.7,1.7C-176,268-181.4,277.1-190.7,277.7z"/>
	<path id="XMLID_62_" d="M-190.6,270.9c0,0-0.8-2.7-0.8-3.6c0,0,5.7-2.2,8.1-4C-183.4,263.4-185.2,268.7-190.6,270.9z"/>
	<path id="XMLID_61_" class="st3" d="M-176.3,255.8c0,0,1.2,2.7-5.3,6.7c0,0,5.7-2.2,9-0.3c0,0,0.3-0.3,0.5-1.2l-3.2-5.3
		L-176.3,255.8z"/>
	<g id="XMLID_59_">
		<path d="M-192.4,273.1c0,0,0.3,0.1,0.5,0.3c0.3,0.2,0.6,0.5,0.8,0.9c0.2,0.4,0.4,0.8,0.4,1.1c0.1,0.3,0,0.6,0,0.6
			s-0.3-0.1-0.5-0.3c-0.3-0.2-0.6-0.5-0.8-0.9c-0.2-0.4-0.4-0.8-0.4-1.1C-192.5,273.4-192.4,273.1-192.4,273.1z"/>
	</g>
	<g id="XMLID_58_">
		<path d="M-191.2,273.1c0,0,0.3,0.1,0.5,0.3c0.3,0.2,0.6,0.5,0.8,0.9c0.2,0.4,0.4,0.8,0.4,1.1c0.1,0.3,0,0.6,0,0.6
			s-0.3-0.1-0.5-0.3c-0.3-0.2-0.6-0.5-0.8-0.9c-0.2-0.4-0.4-0.8-0.4-1.1C-191.2,273.4-191.2,273.1-191.2,273.1z"/>
	</g>
	<g id="XMLID_56_">
		<path d="M-190.1,272.5c0,0,0.3,0.1,0.5,0.3c0.3,0.2,0.6,0.5,0.8,0.9c0.2,0.4,0.4,0.8,0.4,1.1c0.1,0.3,0,0.6,0,0.6
			s-0.3-0.1-0.5-0.3c-0.3-0.2-0.6-0.5-0.8-0.9c-0.2-0.4-0.4-0.8-0.4-1.1C-190.1,272.8-190.1,272.5-190.1,272.5z"/>
	</g>
	<path id="XMLID_55_" class="st5" d="M-201.5,291v1.7c0,0,2,0,1.4,2.5l1.5,1c0,0,1.8-1.8,4.1-0.4l2.1-1.8c0,0-0.9-2.4,0.7-3.3
		l-0.6-1.9c0,0-2.4,0.4-2.9-0.9l-1.9-0.6"/>
	<polyline id="XMLID_54_" class="st6" points="-206.9,284.2 -233.2,256.4 -234,249.1 -227.9,250.8 -203.5,280.4 	"/>
	<path id="XMLID_53_" class="st6" d="M-210.3,286.7c0,0,6.6-5.4,9.2-9.9c0,0,1.4,0.6,1.4,0.9c0,0.3-1.9,7-10,10.5
		C-209.7,288.3-209.9,288.8-210.3,286.7z"/>
	<polyline id="XMLID_52_" class="st0" points="-186.7,287.4 -191.2,294.7 -181.5,299.1 -178.3,296.2 	"/>
	<path id="XMLID_51_" class="st5" d="M-196,301.2l2.2-4.2c0,0,8,1.4,11.5,4.5l-2.9,3.7c0,0-2.8-2.1-4-2.1c-1.2,0-3.4,1-5.3-1.3
		C-194.5,301.9-195.4,301.3-196,301.2z"/>
	<path id="XMLID_50_" class="st5" d="M-175.5,304v3.8c0,0,5.7-0.5,6.8-0.3c1,0.2,3.1,1.6,6.6-1.8l-2.5-6.1"/>
	<path id="XMLID_26_" class="st4" d="M-186.3,308.3c0,0-6.7-3.3-10.2-3l-1.3,8.6l-0.1,2.7c0,0-5.1,0.7-6.1,3.4v2.9
		c0,0,14.6,0.1,17.4-0.8c0,0,0.2-2.7-1.2-5C-187.7,317.1-186.4,309-186.3,308.3z"/>
	<path id="XMLID_25_" class="st1" d="M-197.8,313.8l3.4,0.2c0,0,2.9-5.1,8.2-1.2l-1.3,1.9l-4,2.8c0,0-1.4,1.3-1.6,1.6
		c0,0-1.8-1.4-1.8-2.3l-3.5-0.2L-197.8,313.8z"/>
	<circle id="XMLID_24_" class="st5" cx="-189.9" cy="315.4" r="2.6"/>
	<path id="XMLID_13_" class="st4" d="M-173.6,310.4c0,0,10.9,0.2,12.4-0.5l1.8,6.5c0,0,5.3,2.1,5.5,6.8c0,0-5.5,2.7-7.1,2.8
		c-1.6,0.1-3.6,0.1-6.6-2.3c-3-2.3-4.1-2.2-4.6-2.5c0,0-0.7-1.5,1.3-3.4l0.2-0.3L-173.6,310.4z"/>
	<path id="XMLID_11_" class="st1" d="M-172.3,316c0,0,3.2-3.8,6.7,0c0,0,4.6,0.8,6.2-2.1l0.6,2.5c0,0-1.7,2.8-6.8,2.3
		c0,0-0.5,2.6-2.7,2.9l0-1.8l-1.8-1.9L-172.3,316z"/>
	<circle id="XMLID_10_" class="st5" cx="-169" cy="317.9" r="2.2"/>
	<circle id="XMLID_9_" class="st7" cx="-196.7" cy="291.4" r="1.8"/>
	<path id="XMLID_8_" class="st8" d="M-189.2,281c0,0,13.1-7.3,29.2-5.6c0,0,0.8,19.4-3.8,25c0,0-1.3,1.5-6.2,3.7c0,0-4.7-0.1-7.2-1
		C-177.3,303.2-184.7,296.6-189.2,281z"/>
</g>
</svg>
